<svg width="15" height="18" viewBox="0 0 15 18" fill="none" xmlns="http://www.w3.org/2000/svg">
<path d="M12.2705 9.36264C12.2499 7.13843 14.1384 6.05635 14.2247 6.00597C13.1552 4.48567 11.4976 4.27795 10.915 4.26139C9.52279 4.11854 8.17231 5.07364 7.4631 5.07364C6.73973 5.07364 5.6476 4.27519 4.47053 4.29865C2.95584 4.32143 1.53882 5.17647 0.761659 6.50423C-0.842213 9.2115 0.353967 13.1899 1.8906 15.3783C2.65927 16.45 3.55747 17.6466 4.73312 17.6045C5.88329 17.5583 6.31293 16.8896 7.70092 16.8896C9.07617 16.8896 9.47962 17.6045 10.6786 17.5776C11.913 17.5583 12.6902 16.5011 13.432 15.4197C14.3203 14.1913 14.677 12.9815 14.6911 12.9194C14.6621 12.9098 12.2938 12.0285 12.2705 9.36264Z" fill="black"/>
<path d="M10.0055 2.82183C10.6241 2.06755 11.0474 1.04137 10.9299 0C10.0345 0.0386458 8.9148 0.603841 8.26999 1.34156C7.6995 1.99164 7.18989 3.05716 7.32154 4.05919C8.32732 4.13234 9.36 3.56439 10.0055 2.82183Z" fill="black"/>
</svg>
