<svg width="26" height="26" viewBox="0 0 26 26" fill="none" xmlns="http://www.w3.org/2000/svg">
<g clip-path="url(#clip0_24_7039)">
<path d="M26 13.0002C26 5.82059 20.1797 0.000244141 13 0.000244141C5.82034 0.000244141 0 5.82059 0 13.0002C0 19.4889 4.75394 24.8671 10.9688 25.8423V16.7581H7.66797V13.0002H10.9688V10.1362C10.9688 6.87806 12.9096 5.07837 15.8791 5.07837C17.3014 5.07837 18.7891 5.33228 18.7891 5.33228V8.53149H17.1498C15.5349 8.53149 15.0312 9.53361 15.0312 10.5617V13.0002H18.6367L18.0604 16.7581H15.0312V25.8423C21.2461 24.8671 26 19.489 26 13.0002Z" fill="#9C28B1"/>
<path d="M18.0604 16.7578L18.6367 13H15.0312V10.5615C15.0312 9.53327 15.5349 8.53125 17.1498 8.53125H18.7891V5.33203C18.7891 5.33203 17.3014 5.07812 15.879 5.07812C12.9096 5.07812 10.9688 6.87781 10.9688 10.1359V13H7.66797V16.7578H10.9688V25.8421C11.6407 25.9474 12.3198 26.0002 13 26C13.6802 26.0002 14.3593 25.9474 15.0312 25.8421V16.7578H18.0604Z" fill="white"/>
</g>
<defs>
<clipPath id="clip0_24_7039">
<rect width="26" height="26" fill="white"/>
</clipPath>
</defs>
</svg>
