<svg width="17" height="18" viewBox="0 0 17 18" fill="none" xmlns="http://www.w3.org/2000/svg">
<path d="M0.325123 0.272991C0.119182 0.483468 0 0.811162 0 1.23554V16.3728C0 16.7971 0.119182 17.1248 0.325123 17.3353L0.375951 17.3815L9.06402 8.90254V8.70233L0.375951 0.223368L0.325123 0.272991Z" fill="url(#paint0_linear_121_83)"/>
<path d="M11.9575 11.7287L9.0647 8.90098V8.70077L11.961 5.87303L12.0259 5.90982L15.4559 7.81523C16.4347 8.35597 16.4347 9.24579 15.4559 9.78995L12.0259 11.6919L11.9575 11.7287V11.7287Z" fill="url(#paint1_linear_121_83)"/>
<path d="M12.0249 11.6928L9.06372 8.80175L0.324829 17.3346C0.649952 17.6683 1.18014 17.7085 1.78306 17.3748L12.0249 11.6928" fill="url(#paint2_linear_121_83)"/>
<path d="M12.0267 5.91024L1.7849 0.228225C1.18197 -0.102035 0.651784 -0.061823 0.32666 0.27186L9.06556 8.8013L12.0267 5.91024Z" fill="url(#paint3_linear_121_83)"/>
<defs>
<linearGradient id="paint0_linear_121_83" x1="8.29262" y1="16.5304" x2="-3.19125" y2="4.76805" gradientUnits="userSpaceOnUse">
<stop stop-color="#00A0FF"/>
<stop offset="0.0066" stop-color="#00A1FF"/>
<stop offset="0.2601" stop-color="#00BEFF"/>
<stop offset="0.5122" stop-color="#00D2FF"/>
<stop offset="0.7604" stop-color="#00DFFF"/>
<stop offset="1" stop-color="#00E3FF"/>
</linearGradient>
<linearGradient id="paint1_linear_121_83" x1="16.7305" y1="8.79992" x2="-0.233306" y2="8.79992" gradientUnits="userSpaceOnUse">
<stop stop-color="#FFE000"/>
<stop offset="0.4087" stop-color="#FFBD00"/>
<stop offset="0.7754" stop-color="#FFA500"/>
<stop offset="1" stop-color="#FF9C00"/>
</linearGradient>
<linearGradient id="paint2_linear_121_83" x1="10.4147" y1="7.23012" x2="-5.15838" y2="-8.72056" gradientUnits="userSpaceOnUse">
<stop stop-color="#FF3A44"/>
<stop offset="1" stop-color="#C31162"/>
</linearGradient>
<linearGradient id="paint3_linear_121_83" x1="-1.8731" y1="22.3702" x2="5.08097" y2="15.2476" gradientUnits="userSpaceOnUse">
<stop stop-color="#32A071"/>
<stop offset="0.0685" stop-color="#2DA771"/>
<stop offset="0.4762" stop-color="#15CF74"/>
<stop offset="0.8009" stop-color="#06E775"/>
<stop offset="1" stop-color="#00F076"/>
</linearGradient>
</defs>
</svg>
