<svg width="102" height="104" viewBox="0 0 102 104" fill="none" xmlns="http://www.w3.org/2000/svg">
<g filter="url(#filter0_d_266_11419)">
<rect x="11.7334" y="11.0667" width="80" height="80" rx="40" fill="#1BC471"/>
<g clip-path="url(#clip0_266_11419)">
<path d="M26.1958 50.7475C26.1946 55.2285 27.3654 59.6039 29.5918 63.4605L25.9829 76.6371L39.4676 73.1014C43.1973 75.1318 47.3761 76.1957 51.6226 76.196H51.6338C65.6524 76.196 77.0638 64.7886 77.0698 50.7675C77.0725 43.9733 74.429 37.5845 69.6261 32.7779C64.8241 27.9717 58.4375 25.3234 51.6327 25.3203C37.6125 25.3203 26.2018 36.727 26.196 50.7475" fill="url(#paint0_linear_266_11419)"/>
<path d="M25.2881 50.7391C25.2866 55.3814 26.4995 59.9133 28.8052 63.9079L25.0669 77.5569L39.0351 73.8945C42.8837 75.9929 47.217 77.0992 51.6263 77.1009H51.6376C66.1592 77.1009 77.9806 65.2832 77.9868 50.7602C77.9893 43.7219 75.2507 37.1034 70.2762 32.1246C65.3011 27.1464 58.6861 24.4028 51.6376 24.3999C37.1136 24.3999 25.2939 36.2159 25.2881 50.7391ZM33.6066 63.22L33.0851 62.392C30.8926 58.9059 29.7354 54.8774 29.7371 50.7408C29.7416 38.6695 39.5657 28.8485 51.6459 28.8485C57.496 28.851 62.9939 31.1315 67.1291 35.2692C71.2641 39.4072 73.5395 44.908 73.538 50.7586C73.5326 62.8299 63.7083 72.6521 51.6376 72.6521H51.629C47.6986 72.65 43.8439 71.5945 40.4823 69.5999L39.6823 69.1255L31.3933 71.2987L33.6066 63.22Z" fill="url(#paint1_linear_266_11419)"/>
<path d="M45.0516 39.7276C44.5584 38.6314 44.0393 38.6092 43.5703 38.59C43.1862 38.5735 42.7471 38.5747 42.3085 38.5747C41.8694 38.5747 41.156 38.7399 40.553 39.3983C39.9494 40.0573 38.2485 41.6499 38.2485 44.8889C38.2485 48.128 40.6078 51.2586 40.9367 51.6982C41.266 52.1371 45.4913 58.9968 52.1832 61.6358C57.7448 63.8289 58.8765 63.3927 60.0836 63.2827C61.2908 63.1732 63.979 61.6906 64.5274 60.1532C65.0762 58.6161 65.0762 57.2984 64.9117 57.0231C64.7471 56.7488 64.3081 56.584 63.6497 56.2549C62.9913 55.9258 59.7543 54.3329 59.1509 54.1131C58.5472 53.8936 58.1084 53.784 57.6693 54.4433C57.2302 55.1014 55.9695 56.584 55.5852 57.0231C55.2013 57.4632 54.817 57.518 54.1588 57.1887C53.5 56.8583 51.3797 56.164 48.8641 53.9213C46.9069 52.1762 45.5856 50.0211 45.2015 49.3619C44.8174 48.7037 45.1604 48.3469 45.4905 48.0189C45.7863 47.7239 46.1491 47.2501 46.4786 46.8658C46.8069 46.4813 46.9164 46.207 47.136 45.7679C47.3557 45.3284 47.2457 44.9439 47.0814 44.6146C46.9164 44.2853 45.6371 41.0293 45.0516 39.7276Z" fill="white"/>
</g>
</g>
<defs>
<filter id="filter0_d_266_11419" x="6.48499e-05" y="-1.65105e-05" width="103.467" height="103.467" filterUnits="userSpaceOnUse" color-interpolation-filters="sRGB">
<feFlood flood-opacity="0" result="BackgroundImageFix"/>
<feColorMatrix in="SourceAlpha" type="matrix" values="0 0 0 0 0 0 0 0 0 0 0 0 0 0 0 0 0 0 127 0" result="hardAlpha"/>
<feMorphology radius="4" operator="dilate" in="SourceAlpha" result="effect1_dropShadow_266_11419"/>
<feOffset dy="0.666667"/>
<feGaussianBlur stdDeviation="3.86667"/>
<feComposite in2="hardAlpha" operator="out"/>
<feColorMatrix type="matrix" values="0 0 0 0 0 0 0 0 0 0 0 0 0 0 0 0 0 0 0.1 0"/>
<feBlend mode="normal" in2="BackgroundImageFix" result="effect1_dropShadow_266_11419"/>
<feBlend mode="normal" in="SourceGraphic" in2="effect1_dropShadow_266_11419" result="shape"/>
</filter>
<linearGradient id="paint0_linear_266_11419" x1="2580.33" y1="5157" x2="2580.33" y2="25.3203" gradientUnits="userSpaceOnUse">
<stop stop-color="#1FAF38"/>
<stop offset="1" stop-color="#60D669"/>
</linearGradient>
<linearGradient id="paint1_linear_266_11419" x1="2671.06" y1="5340.1" x2="2671.06" y2="24.3999" gradientUnits="userSpaceOnUse">
<stop stop-color="#F9F9F9"/>
<stop offset="1" stop-color="white"/>
</linearGradient>
<clipPath id="clip0_266_11419">
<rect width="52.9199" height="53.3333" fill="white" transform="translate(25.0669 24.3999)"/>
</clipPath>
</defs>
</svg>
