<svg width="26" height="27" viewBox="0 0 26 27" fill="none" xmlns="http://www.w3.org/2000/svg">
<g clip-path="url(#clip0_24_7047)">
<path d="M0.554072 12.9445C0.553463 15.1461 1.12871 17.2957 2.22254 19.1905L0.449463 25.6643L7.07459 23.9272C8.90701 24.9247 10.9601 25.4474 13.0465 25.4476H13.0519C19.9394 25.4476 25.546 19.843 25.5489 12.9544C25.5502 9.61629 24.2514 6.47741 21.8917 4.11587C19.5324 1.75455 16.3947 0.453428 13.0514 0.451904C6.16317 0.451904 0.557018 6.05612 0.554174 12.9445" fill="#9C28B1"/>
<path d="M0.108672 12.9407C0.107961 15.2215 0.703828 17.448 1.83666 19.4106L0 26.1165L6.86268 24.3171C8.75357 25.3481 10.8825 25.8916 13.0489 25.8924H13.0544C20.189 25.8924 25.997 20.0863 26 12.951C26.0012 9.49305 24.6557 6.24132 22.2117 3.79519C19.7674 1.34936 16.5174 0.00142187 13.0544 0C5.91866 0 0.111516 5.80531 0.108672 12.9407ZM4.19565 19.0726L3.93941 18.6659C2.86223 16.9531 2.29369 14.9739 2.2945 12.9415C2.29673 7.01076 7.12339 2.18562 13.0585 2.18562C15.9327 2.18684 18.6339 3.30728 20.6655 5.34016C22.6971 7.37323 23.815 10.0758 23.8143 12.9502C23.8116 18.881 18.9849 23.7067 13.0544 23.7067H13.0502C11.1192 23.7057 9.22533 23.1871 7.57372 22.2071L7.18067 21.9741L3.10822 23.0418L4.19565 19.0726Z" fill="url(#paint0_linear_24_7047)"/>
<path d="M9.81959 7.53054C9.57727 6.99195 9.32224 6.98108 9.0918 6.97164C8.90309 6.96351 8.68738 6.96412 8.47186 6.96412C8.25614 6.96412 7.90565 7.04527 7.60939 7.36875C7.31283 7.69253 6.47717 8.47497 6.47717 10.0663C6.47717 11.6578 7.63631 13.1958 7.79789 13.4118C7.95968 13.6274 10.0356 16.9977 13.3234 18.2942C16.0558 19.3717 16.6119 19.1574 17.2049 19.1034C17.798 19.0496 19.1188 18.3211 19.3882 17.5658C19.6579 16.8106 19.6579 16.1632 19.577 16.028C19.4962 15.8932 19.2804 15.8122 18.957 15.6506C18.6334 15.4888 17.0431 14.7062 16.7467 14.5983C16.4501 14.4904 16.2345 14.4366 16.0188 14.7605C15.803 15.0838 15.1836 15.8122 14.9948 16.028C14.8062 16.2442 14.6174 16.2711 14.294 16.1093C13.9704 15.947 12.9286 15.6059 11.6927 14.504C10.7311 13.6466 10.0819 12.5878 9.89323 12.264C9.70452 11.9406 9.87302 11.7653 10.0352 11.6041C10.1805 11.4592 10.3588 11.2264 10.5207 11.0376C10.682 10.8487 10.7358 10.7139 10.8436 10.4982C10.9516 10.2823 10.8976 10.0934 10.8168 9.93158C10.7358 9.76979 10.1072 8.17008 9.81959 7.53054Z" fill="white"/>
</g>
<defs>
<linearGradient id="paint0_linear_24_7047" x1="1300" y1="2611.65" x2="1300" y2="0" gradientUnits="userSpaceOnUse">
<stop stop-color="#F9F9F9"/>
<stop offset="1" stop-color="white"/>
</linearGradient>
<clipPath id="clip0_24_7047">
<rect width="26" height="26.2031" fill="white"/>
</clipPath>
</defs>
</svg>
